<svg width="1197" height="1600" viewBox="0 0 1197 1600" fill="none" xmlns="http://www.w3.org/2000/svg">
<g id="estadio-um">
<path id="base" fill-rule="evenodd" clip-rule="evenodd" d="M598.5 0C929.042 0 1197 358.172 1197 800C1197 1241.83 929.042 1600 598.5 1600C267.958 1600 0 1241.83 0 800C0 358.172 267.958 0 598.5 0ZM599 48C288.616 48 37 384.458 37 799.5C37 1214.54 288.616 1551 599 1551C909.384 1551 1161 1214.54 1161 799.5C1161 384.458 909.384 48 599 48Z" fill="#F5F5F5"/>
<path id="arquibancada" fill-rule="evenodd" clip-rule="evenodd" d="M599 48C909.384 48 1161 384.458 1161 799.5C1161 1214.54 909.384 1551 599 1551C288.616 1551 37 1214.54 37 799.5C37 384.458 288.616 48 599 48ZM601.5 117C319.559 117 91 422.566 91 799.5C91 1176.43 319.559 1482 601.5 1482C883.441 1482 1112 1176.43 1112 799.5C1112 422.566 883.441 117 601.5 117Z" fill="#FF1240"/>
<path id="cadeira-superior" fill-rule="evenodd" clip-rule="evenodd" d="M602 126C880.352 126 1106 427.76 1106 800C1106 1172.24 880.352 1474 602 1474C323.648 1474 98 1172.24 98 800C98 427.76 323.648 126 602 126ZM598.5 208C354.114 208 156 472.824 156 799.5C156 1126.18 354.114 1391 598.5 1391C842.886 1391 1041 1126.18 1041 799.5C1041 472.824 842.886 208 598.5 208Z" fill="#F1627D"/>
<path id="cadeira-inferior" fill-rule="evenodd" clip-rule="evenodd" d="M598.5 216C839.572 216 1035 477.466 1035 800C1035 1122.53 839.572 1384 598.5 1384C357.428 1384 162 1122.53 162 800C162 477.466 357.428 216 598.5 216ZM599 289C388.027 289 217 517.559 217 799.5C217 1081.44 388.027 1310 599 1310C809.973 1310 981 1081.44 981 799.5C981 517.559 809.973 289 599 289Z" fill="#FFABBB"/>
<g id="pista">
<path d="M661.957 939.894L645.268 950.887L683.867 1009.49L700.557 998.499L781.43 1121.29L787.96 1116.99L813.017 1155.03C754.998 1216.97 681.479 1254 601.5 1254C519.904 1254 445.032 1215.46 386.483 1151.24L409.046 1116.99L415.577 1121.29L496.448 998.498L513.14 1009.49L551.739 950.887L535.048 939.893L560.961 900.551H636.045L661.957 939.894Z" fill="#F01A3E"/>
<path d="M851.035 491.321C906.881 572.323 941 680.577 941 799.5C941 918.666 906.741 1027.12 850.691 1108.17L835.76 1085.5L841.949 1081.43L761.076 958.639L777.475 947.839L738.875 889.233L722.477 900.033L699.448 865.069C699.451 864.897 699.455 864.724 699.455 864.551V735.385C699.455 735.239 699.451 735.093 699.449 734.947L722.477 699.984L738.875 710.785L777.475 652.181L761.075 641.38L841.949 518.591L835.759 514.514L851.035 491.321Z" fill="#F01A3E"/>
<path d="M361.245 514.514L355.057 518.591L435.93 641.38L419.532 652.181L458.131 710.785L474.528 699.984L498.289 736.061V863.958L474.527 900.033L458.131 889.233L419.532 947.839L435.928 958.638L355.057 1081.43L361.244 1085.5L349.257 1103.71C295.017 1023.15 262 916.488 262 799.5C262 682.755 294.879 576.29 348.918 495.797L361.245 514.514Z" fill="#F01A3E"/>
<path d="M601.5 345C681.66 345 755.33 382.193 813.41 444.391L787.959 483.031L781.43 478.731L700.557 601.52L683.867 590.527L645.268 649.133L661.957 660.125L636.101 699.385H560.905L535.048 660.125L551.739 649.133L513.14 590.527L496.449 601.52L415.577 478.731L409.047 483.032L386.095 448.184C444.701 383.708 519.723 345 601.5 345Z" fill="#F01A3E"/>
</g>
<g id="palco">
<path d="M554.404 880.434C534.522 880.434 518.404 864.316 518.404 844.434V755.501C518.404 735.619 534.522 719.501 554.404 719.501H643.337C663.22 719.501 679.337 735.619 679.337 755.501V844.434C679.337 864.316 663.219 880.434 643.337 880.434H554.404Z" fill="black"/>
<path d="M647.83 722.746L812.449 477.499L833.205 491.432L668.587 736.678L647.83 722.746Z" fill="black"/>
<path d="M638.803 723.619L781.217 511.452L814.491 533.787L672.077 745.954L638.803 723.619Z" fill="black"/>
<path d="M660.038 646.263L687.559 605.262L763.534 656.259L736.013 697.26L660.038 646.263Z" fill="black"/>
<path d="M647.83 877.254L812.449 1122.5L833.205 1108.57L668.587 863.322L647.83 877.254Z" fill="black"/>
<path d="M638.803 876.381L781.217 1088.55L814.491 1066.21L672.077 854.046L638.803 876.381Z" fill="black"/>
<path d="M660.038 953.737L687.559 994.738L763.534 943.741L736.013 902.74L660.038 953.737Z" fill="black"/>
<path d="M551.025 722.746L386.406 477.499L365.649 491.432L530.268 736.678L551.025 722.746Z" fill="black"/>
<path d="M560.052 723.619L417.638 511.452L384.364 533.787L526.778 745.954L560.052 723.619Z" fill="black"/>
<path d="M538.817 646.263L511.296 605.262L435.321 656.259L462.842 697.26L538.817 646.263Z" fill="black"/>
<path d="M551.025 877.254L386.406 1122.5L365.649 1108.57L530.268 863.322L551.025 877.254Z" fill="black"/>
<path d="M560.052 876.381L417.638 1088.55L384.364 1066.21L526.778 854.046L560.052 876.381Z" fill="black"/>
<path d="M538.817 953.737L511.296 994.738L435.321 943.741L462.842 902.74L538.817 953.737Z" fill="black"/>
</g>
</g>
</svg>
